<svg width="1200" height="460" viewBox="0 0 1200 460" fill="none" xmlns="http://www.w3.org/2000/svg">
  <defs>
    <linearGradient id="bg" x1="0" y1="0" x2="1200" y2="460" gradientUnits="userSpaceOnUse">
      <stop offset="0" stop-color="#05070C"/>
      <stop offset="0.48" stop-color="#0A1630"/>
      <stop offset="1" stop-color="#031C22"/>
    </linearGradient>
    <linearGradient id="panel" x1="78" y1="84" x2="506" y2="372" gradientUnits="userSpaceOnUse">
      <stop stop-color="#111827"/>
      <stop offset="1" stop-color="#07111F"/>
    </linearGradient>
    <linearGradient id="core" x1="560" y1="88" x2="832" y2="370" gradientUnits="userSpaceOnUse">
      <stop stop-color="#70F0FF"/>
      <stop offset="0.48" stop-color="#7C5CFF"/>
      <stop offset="1" stop-color="#20E3B2"/>
    </linearGradient>
    <filter id="glow" x="-40%" y="-40%" width="180%" height="180%">
      <feGaussianBlur stdDeviation="9" result="blur"/>
      <feColorMatrix in="blur" type="matrix" values="0 0 0 0 0.1 0 0 0 0 0.85 0 0 0 0 1 0 0 0 0.8 0"/>
      <feBlend in="SourceGraphic" mode="screen"/>
    </filter>
    <pattern id="grid" width="44" height="44" patternUnits="userSpaceOnUse">
      <path d="M44 0H0V44" stroke="#2A3B55" stroke-width="1" opacity="0.38"/>
    </pattern>
  </defs>

  <rect width="1200" height="460" rx="30" fill="url(#bg)"/>
  <rect width="1200" height="460" rx="30" fill="url(#grid)" opacity="0.42"/>
  <path d="M70 368C196 266 310 298 438 214C566 130 688 54 838 104C958 144 1004 260 1134 150" stroke="#13D8FF" stroke-width="2" opacity="0.42"/>
  <path d="M74 105C192 188 326 156 458 236C610 328 742 408 914 316C1018 260 1074 250 1132 292" stroke="#8E7CFF" stroke-width="2" opacity="0.38"/>

  <rect x="66" y="70" width="468" height="320" rx="22" fill="url(#panel)" stroke="#24405F"/>
  <rect x="94" y="102" width="150" height="15" rx="7.5" fill="#19D8FF"/>
  <rect x="94" y="141" width="348" height="12" rx="6" fill="#31435B"/>
  <rect x="94" y="171" width="292" height="12" rx="6" fill="#31435B"/>
  <rect x="94" y="201" width="380" height="12" rx="6" fill="#31435B"/>
  <rect x="94" y="247" width="170" height="46" rx="13" fill="#19D8FF" opacity="0.92"/>
  <rect x="282" y="247" width="124" height="46" rx="13" fill="#172235" stroke="#39577B"/>
  <path d="M112 327H470" stroke="#27415F" stroke-width="12" stroke-linecap="round"/>
  <path d="M112 327H318" stroke="#20E3B2" stroke-width="12" stroke-linecap="round"/>
  <text x="96" y="352" fill="#AFC4D7" font-family="Arial, Helvetica, sans-serif" font-size="18">local workspace / guarded tools / streaming output</text>

  <g filter="url(#glow)">
    <circle cx="710" cy="230" r="122" fill="#091627" stroke="url(#core)" stroke-width="4"/>
    <circle cx="710" cy="230" r="76" fill="#0E1F35" stroke="#36E9FF" stroke-width="2"/>
    <path d="M710 122V338M602 230H818M633 153L787 307M787 153L633 307" stroke="#36E9FF" stroke-width="2" opacity="0.62"/>
    <circle cx="710" cy="230" r="34" fill="url(#core)"/>
  </g>
  <circle cx="710" cy="122" r="9" fill="#20E3B2"/>
  <circle cx="818" cy="230" r="9" fill="#19D8FF"/>
  <circle cx="710" cy="338" r="9" fill="#8E7CFF"/>
  <circle cx="602" cy="230" r="9" fill="#19D8FF"/>

  <rect x="900" y="98" width="222" height="56" rx="16" fill="#0D1726" stroke="#2D4C70"/>
  <rect x="900" y="184" width="222" height="56" rx="16" fill="#0D1726" stroke="#2D4C70"/>
  <rect x="900" y="270" width="222" height="56" rx="16" fill="#0D1726" stroke="#2D4C70"/>
  <circle cx="930" cy="126" r="10" fill="#19D8FF"/>
  <circle cx="930" cy="212" r="10" fill="#20E3B2"/>
  <circle cx="930" cy="298" r="10" fill="#8E7CFF"/>
  <text x="956" y="132" fill="#E7F6FF" font-family="Arial, Helvetica, sans-serif" font-size="22" font-weight="700">Windows</text>
  <text x="956" y="218" fill="#E7F6FF" font-family="Arial, Helvetica, sans-serif" font-size="22" font-weight="700">macOS</text>
  <text x="956" y="304" fill="#E7F6FF" font-family="Arial, Helvetica, sans-serif" font-size="22" font-weight="700">Linux</text>

  <text x="66" y="48" fill="#DFF7FF" font-family="Arial, Helvetica, sans-serif" font-size="26" font-weight="700">Agent Cowork</text>
  <text x="66" y="430" fill="#93A9C3" font-family="Arial, Helvetica, sans-serif" font-size="20">Free Desktop AI Workspace · NVIDIA NIM · Local Sessions · Permission Guard</text>
</svg>
